<?xml version="1.0" encoding="UTF-8" standalone="no"?>
<!-- Created with Inkscape (http://www.inkscape.org/) -->

<svg
   version="1.1"
   id="svg1"
   width="200"
   height="200"
   viewBox="0 0 200 200"
   sodipodi:docname="helios-logo.png"
   xml:space="preserve"
   inkscape:export-filename="../Documents/helios-logo.png"
   inkscape:export-xdpi="96"
   inkscape:export-ydpi="96"
   xmlns:inkscape="http://www.inkscape.org/namespaces/inkscape"
   xmlns:sodipodi="http://sodipodi.sourceforge.net/DTD/sodipodi-0.dtd"
   xmlns="http://www.w3.org/2000/svg"
   xmlns:svg="http://www.w3.org/2000/svg"><defs
     id="defs1" /><sodipodi:namedview
     id="namedview1"
     pagecolor="#ffffff"
     bordercolor="#000000"
     borderopacity="0.25"
     inkscape:showpageshadow="2"
     inkscape:pageopacity="0.0"
     inkscape:pagecheckerboard="0"
     inkscape:deskcolor="#d1d1d1"
     inkscape:export-bgcolor="#ffffff00"><inkscape:page
       x="0"
       y="0"
       width="200"
       height="200"
       id="page2"
       margin="0"
       bleed="0" /></sodipodi:namedview><g
     inkscape:groupmode="layer"
     inkscape:label="Image"
     id="g1"><path
       style="opacity:1;fill:#f9dc81;fill-opacity:1;stroke:none;stroke-width:0.122483;stroke-dasharray:none;stroke-dashoffset:0;stroke-opacity:1"
       d="M 6.3070583,35.117544 C 4.574816,37.33599 3.6400902,39.991171 2.8241972,42.582833 1.678514,46.221944 1.0911802,50.009658 0.88925079,53.780739 0.56812878,59.778565 1.5786367,65.775062 2.050228,71.765273 c 1.2032454,15.28409 2.8980307,30.535537 4.2568303,45.809617 1.6196604,18.20595 -4.321668,38.14978 4.6438377,54.63225 1.296396,2.38336 3.858292,4.2969 6.578754,5.42928 6.229789,2.59317 13.635811,1.89599 20.510222,2.37532 9.390558,0.6548 18.83066,0.56554 28.249961,0.67867 14.059179,0.16883 28.133272,0.51567 42.181467,0 20.0469,-0.73586 40.18009,-1.57864 59.98277,-4.41132 5.89773,-0.84363 12.68115,-0.53411 17.41433,-3.73262 4.06906,-2.74971 5.83039,-7.57435 7.35277,-11.87659 4.03578,-11.40514 3.5464,-23.70439 4.25683,-35.62971 0.42396,-7.11623 0.4012,-14.26057 0,-21.37784 -0.71035,-12.601349 -2.55106,-25.13794 -4.25683,-37.665691 -1.43603,-10.546629 -0.5311,-21.696262 -5.03084,-31.557759 -2.71276,-5.945269 -6.53867,-12.270878 -12.7705,-15.609211 -9.68316,-5.187167 -22.34808,-3.719173 -33.66776,-4.411309 -14.1557,-0.865521 -28.38358,0.0029 -42.568445,0.339332 -14.327747,0.339982 -28.795646,-0.25144 -42.955408,1.696658 -10.170981,1.399335 -20.158292,3.955458 -29.797898,7.125957 -4.429439,1.456857 -8.879202,3.070231 -12.770538,5.429272 -2.777039,1.683569 -5.4453761,3.665287 -7.3527227,6.107965 z"
       id="path4"
       sodipodi:nodetypes="aaaaaaaaaaaaaaaaaaaaaaaa" /><path
       style="fill:#354fab;stroke:none;stroke-width:0.0942174"
       d="m 29.851276,59.372914 v 58.140906 14.2926 3.44082 c 0,0.30666 -0.148709,1.0174 0.161343,1.23272 0.228598,0.15875 0.674413,0.0906 0.945435,0.0906 h 2.515405 9.558543 13.583185 3.420956 c 0.355293,0 1.052119,0.11477 1.347934,-0.0906 0.418284,-0.29051 0.161343,-1.67773 0.161343,-2.11496 v -6.26408 -16.67468 c 0,-2.62233 -0.55062,-5.7718 0.783318,-8.20502 1.885755,-3.439784 7.67235,-2.99223 9.171144,0.44111 0.907666,2.07921 0.610209,4.52106 0.610209,6.70518 v 11.64583 14.55728 h 31.593539 v -17.99809 h 0.10064 c 1.13083,4.284 4.90755,8.4537 8.55237,11.30757 12.4147,9.72043 32.79045,10.25991 47.4909,4.56079 6.27217,-2.43163 11.52226,-6.63091 14.82133,-11.8982 0.93939,-1.49978 2.0956,-3.31616 2.38407,-5.02887 h -19.1171 c -3.11395,0 -6.35702,-0.23153 -9.45792,0.005 -0.91287,0.0697 -1.78879,1.16754 -2.61602,1.55437 -1.55303,0.72623 -3.58054,1.06273 -5.33268,0.99556 -4.06797,-0.156 -8.1936,-2.49684 -8.55238,-6.34881 h 33.90767 8.75363 c 0.70164,0 2.60324,0.29529 3.15901,-0.0906 0.3621,-0.25149 0.15259,-1.22009 0.16279,-1.58563 0.0413,-1.4796 -0.0215,-2.92898 -0.0981,-4.41128 -0.34935,-6.74733 -3.39327,-13.828795 -8.66598,-18.792143 -12.04555,-11.338832 -34.23417,-12.535114 -49.49419,-5.84471 -7.13436,3.127902 -14.23565,9.105754 -16.09861,16.167162 h -0.10065 c -0.005,-1.769891 -0.55852,-3.608831 -1.13498,-5.293583 -0.64562,-1.886801 -1.59158,-3.71643 -2.794391,-5.3815 -5.411518,-7.491264 -15.626412,-10.122303 -25.249362,-9.278643 -4.366558,0.38285 -9.242358,1.513961 -12.778236,3.896841 V 59.373025 H 29.851276 M 148.77973,102.95666 h -16.70231 c 0.27404,-5.256236 8.01721,-7.224777 12.67767,-5.181516 2.27683,0.998256 3.52681,3.072266 4.02464,5.181516 z"
       id="path3" /></g></svg>
